<svg width="33" height="33" viewBox="0 0 33 33" fill="none" xmlns="http://www.w3.org/2000/svg">
<g clip-path="url(#clip0_0_2003)">
<path fill-rule="evenodd" clip-rule="evenodd" d="M16.373 10.501C11.954 10.501 8.37305 14.082 8.37305 18.501C8.37305 22.919 11.954 26.501 16.373 26.501C20.791 26.501 24.373 22.919 24.373 18.501C24.373 14.083 20.791 10.501 16.373 10.501ZM20.928 22.406C18.772 24.922 14.985 25.213 12.469 23.056C9.95205 20.9 9.66205 17.112 11.819 14.597C13.974 12.08 17.762 11.79 20.278 13.947C22.793 16.102 23.084 19.891 20.928 22.406Z" fill="white"/>
<path fill-rule="evenodd" clip-rule="evenodd" d="M16.373 14.501C14.164 14.501 12.374 16.292 12.373 18.5V18.502C12.373 18.777 12.597 19.002 12.873 19.002C13.149 19.002 13.373 18.777 13.373 18.502V18.5C13.374 16.844 14.716 15.501 16.373 15.501C16.649 15.501 16.873 15.277 16.873 15.001C16.873 14.725 16.649 14.501 16.373 14.501Z" fill="white"/>
<path fill-rule="evenodd" clip-rule="evenodd" d="M29.865 9.542L25.531 8.819L24.158 5.385C23.699 4.24 22.605 3.5 21.373 3.5H11.373C10.141 3.5 9.04705 4.24 8.58705 5.386L7.21505 8.819L2.88205 9.542C1.42805 9.783 0.373047 11.027 0.373047 12.5V27.5C0.373047 29.154 1.71905 30.5 3.37305 30.5H29.373C31.027 30.5 32.373 29.154 32.373 27.5V12.5C32.373 11.027 31.318 9.783 29.865 9.542ZM30.373 27.5C30.373 28.053 29.926 28.5 29.373 28.5H3.37305C2.82005 28.5 2.37305 28.053 2.37305 27.5V12.5C2.37305 12.011 2.72705 11.594 3.20905 11.514L8.65305 10.607L10.444 6.129C10.597 5.75 10.964 5.5 11.373 5.5H21.373C21.781 5.5 22.148 5.749 22.301 6.129L24.092 10.607L29.537 11.514C30.019 11.594 30.373 12.011 30.373 12.5V27.5Z" fill="white"/>
</g>
<defs>
<clipPath id="clip0_0_2003">
<rect width="32" height="32" fill="white" transform="translate(0.373047 0.5)"/>
</clipPath>
</defs>
</svg>
